<svg width="202" height="53" viewBox="0 0 202 53" fill="none" xmlns="http://www.w3.org/2000/svg">
<g filter="url(#filter0_n_5_17)">
<path d="M60.6414 14.43V29.13C60.6414 30.6 61.0031 31.7317 61.7264 32.525C62.4498 33.3183 63.5114 33.715 64.9114 33.715C66.3114 33.715 67.3848 33.3183 68.1314 32.525C68.8781 31.7317 69.2514 30.6 69.2514 29.13V14.43H75.2364V29.095C75.2364 31.2883 74.7698 33.1433 73.8364 34.66C72.9031 36.1767 71.6431 37.32 70.0564 38.09C68.4931 38.86 66.7431 39.245 64.8064 39.245C62.8698 39.245 61.1314 38.8717 59.5914 38.125C58.0748 37.355 56.8731 36.2117 55.9864 34.695C55.0998 33.155 54.6564 31.2883 54.6564 29.095V14.43H60.6414ZM91.9692 39L86.8592 29.725H85.4242V39H79.4392V14.43H89.4842C91.4208 14.43 93.0658 14.7683 94.4192 15.445C95.7958 16.1217 96.8225 17.055 97.4992 18.245C98.1758 19.4117 98.5142 20.7183 98.5142 22.165C98.5142 23.7983 98.0475 25.2567 97.1142 26.54C96.2042 27.8233 94.8508 28.7333 93.0542 29.27L98.7242 39H91.9692ZM85.4242 25.49H89.1342C90.2308 25.49 91.0475 25.2217 91.5842 24.685C92.1442 24.1483 92.4242 23.39 92.4242 22.41C92.4242 21.4767 92.1442 20.7417 91.5842 20.205C91.0475 19.6683 90.2308 19.4 89.1342 19.4H85.4242V25.49ZM108.256 34.38H116.096V39H102.271V14.43H108.256V34.38ZM134.946 14.43V19.225H124.936V24.405H132.426V29.06H124.936V39H118.951V14.43H134.946ZM144.077 14.43V39H138.092V14.43H144.077ZM160.944 39L155.834 29.725H154.399V39H148.414V14.43H158.459C160.395 14.43 162.04 14.7683 163.394 15.445C164.77 16.1217 165.797 17.055 166.474 18.245C167.15 19.4117 167.489 20.7183 167.489 22.165C167.489 23.7983 167.022 25.2567 166.089 26.54C165.179 27.8233 163.825 28.7333 162.029 29.27L167.699 39H160.944ZM154.399 25.49H158.109C159.205 25.49 160.022 25.2217 160.559 24.685C161.119 24.1483 161.399 23.39 161.399 22.41C161.399 21.4767 161.119 20.7417 160.559 20.205C160.022 19.6683 159.205 19.4 158.109 19.4H154.399V25.49ZM199.071 14.43V39H193.086V24.265L187.591 39H182.761L177.231 24.23V39H171.246V14.43H178.316L185.211 31.44L192.036 14.43H199.071Z" fill="url(#paint0_linear_5_17)"/>
</g>
<g filter="url(#filter1_n_5_17)">
<path d="M47.8667 6.78114C47.93 6.71708 47.9731 6.63596 47.9909 6.54773C48.0087 6.4595 48.0003 6.36801 47.9668 6.28447C47.9314 6.20067 47.8722 6.12907 47.7965 6.07852C47.7209 6.02797 47.6321 6.00068 47.5411 6.00003H20.1569C9.0258 6.00003 0 14.9556 0 26.0022C0 37.0422 9.0258 45.9999 20.1569 45.9999C22.8011 46.0079 25.4208 45.4938 27.8656 44.487C30.3105 43.4802 32.5323 42.0007 34.4036 40.1333C40.1715 34.54 43.4183 24.0133 45.9493 14.4245L46.0305 14.12L46.2116 13.4311C46.229 13.3634 46.2304 13.2926 46.216 13.2242C46.2015 13.1558 46.1715 13.0916 46.1283 13.0367C46.0847 12.9813 46.0292 12.9365 45.9659 12.9055C45.9025 12.8745 45.8331 12.8582 45.7626 12.8578H42.339C42.2482 12.8582 42.1593 12.832 42.0832 12.7824C42.0072 12.7329 41.9473 12.6621 41.9111 12.5789C41.8762 12.4949 41.8673 12.4024 41.8856 12.3132C41.9038 12.2241 41.9483 12.1425 42.0133 12.0789L47.8667 6.78114Z" fill="url(#paint1_linear_5_17)"/>
</g>
<path fill-rule="evenodd" clip-rule="evenodd" d="M20.4983 16.0022H28.5015V16C29.4295 16.0009 30.3192 16.3525 30.9751 16.9776C31.6311 17.6028 31.9997 18.4503 32 19.3341V26.9518C31.9994 27.8355 31.6307 28.6829 30.9748 29.3079C30.3189 29.933 29.4294 30.2847 28.5015 30.2859H20.4983C19.5703 30.2847 18.6807 29.933 18.0246 29.308C17.3686 28.683 16.9996 27.8356 16.9987 26.9518V25.5246H19.9992V26.9518C20.0015 27.0776 20.055 27.1976 20.1482 27.2866C20.2415 27.3757 20.3674 27.4268 20.4994 27.4294H28.5015C28.6342 27.4282 28.761 27.3775 28.8548 27.2882C28.9485 27.1989 29.0018 27.0781 29.003 26.9518V19.3341C29.0012 19.2079 28.9478 19.0875 28.8541 18.9983C28.7605 18.9091 28.634 18.8582 28.5015 18.8565H20.4983C20.2302 18.8565 19.998 19.0766 19.998 19.3341V20.7634H16.9987V19.3352C17.0008 18.4515 17.3703 17.6047 18.0264 16.9799C18.6824 16.3551 19.5716 16.0031 20.4994 16.0011L20.4983 16.0022ZM22.5017 33.1457C22.6335 33.1446 22.7597 33.0945 22.8533 33.0061C22.947 32.9178 23.0007 32.7981 23.0031 32.6725V31.2421H26.0025V32.6692C26.0016 33.5529 25.6323 34.4001 24.9759 35.0246C24.3195 35.6492 23.4296 36 22.5017 36H14.4985C13.5708 35.9994 12.6813 35.6482 12.0254 35.0235C11.3694 34.3988 11.0006 33.5516 11 32.6681V25.0526C11.0003 24.1686 11.3688 23.3209 12.0247 22.6954C12.6806 22.0699 13.5703 21.7178 14.4985 21.7163H22.5017C23.4303 21.7172 24.3205 22.0691 24.9769 22.6946C25.6333 23.3201 26.0022 24.1682 26.0025 25.0526V26.4765H23.0031V25.0526C23.0022 24.9261 22.9491 24.805 22.8553 24.7155C22.7615 24.6259 22.6345 24.5751 22.5017 24.5739H14.4996C14.3675 24.576 14.2415 24.6272 14.1486 24.7167C14.0557 24.8062 14.0034 24.9268 14.0028 25.0526V32.6703C14.0046 32.7955 14.0574 32.9151 14.1502 33.0038C14.2429 33.0925 14.3682 33.1434 14.4996 33.1457H22.5017Z" fill="white"/>
<defs>
<filter id="filter0_n_5_17" x="54.6564" y="14.43" width="144.414" height="24.815" filterUnits="userSpaceOnUse" color-interpolation-filters="sRGB">
<feFlood flood-opacity="0" result="BackgroundImageFix"/>
<feBlend mode="normal" in="SourceGraphic" in2="BackgroundImageFix" result="shape"/>
<feTurbulence type="fractalNoise" baseFrequency="3.3333332538604736 3.3333332538604736" stitchTiles="stitch" numOctaves="3" result="noise" seed="3002" />
<feComponentTransfer in="noise" result="coloredNoise1">
<feFuncR type="linear" slope="2" intercept="-0.5" />
<feFuncG type="linear" slope="2" intercept="-0.5" />
<feFuncB type="linear" slope="2" intercept="-0.5" />
<feFuncA type="discrete" tableValues="0 0 0 0 0 0 0 0 0 0 0 0 1 1 1 1 1 1 1 1 1 1 1 1 1 1 1 1 1 1 1 1 1 1 1 1 1 1 0 0 0 0 0 0 0 0 0 0 0 0 0 0 0 0 0 0 0 0 0 0 0 0 0 0 0 0 0 0 0 0 0 0 0 0 0 0 0 0 0 0 0 0 0 0 0 0 0 0 0 0 0 0 0 0 0 0 0 0 0 0 "/>
</feComponentTransfer>
<feComposite operator="in" in2="shape" in="coloredNoise1" result="noise1Clipped" />
<feComponentTransfer in="noise1Clipped" result="color1">
<feFuncA type="table" tableValues="0 0.15" />
</feComponentTransfer>
<feMerge result="effect1_noise_5_17">
<feMergeNode in="shape" />
<feMergeNode in="color1" />
</feMerge>
</filter>
<filter id="filter1_n_5_17" x="0" y="6.00003" width="48" height="40" filterUnits="userSpaceOnUse" color-interpolation-filters="sRGB">
<feFlood flood-opacity="0" result="BackgroundImageFix"/>
<feBlend mode="normal" in="SourceGraphic" in2="BackgroundImageFix" result="shape"/>
<feTurbulence type="fractalNoise" baseFrequency="3.3333332538604736 3.3333332538604736" stitchTiles="stitch" numOctaves="3" result="noise" seed="3002" />
<feComponentTransfer in="noise" result="coloredNoise1">
<feFuncR type="linear" slope="2" intercept="-0.5" />
<feFuncG type="linear" slope="2" intercept="-0.5" />
<feFuncB type="linear" slope="2" intercept="-0.5" />
<feFuncA type="discrete" tableValues="0 0 0 0 0 0 0 0 0 0 0 0 1 1 1 1 1 1 1 1 1 1 1 1 1 1 1 1 1 1 1 1 1 1 1 1 1 1 0 0 0 0 0 0 0 0 0 0 0 0 0 0 0 0 0 0 0 0 0 0 0 0 0 0 0 0 0 0 0 0 0 0 0 0 0 0 0 0 0 0 0 0 0 0 0 0 0 0 0 0 0 0 0 0 0 0 0 0 0 0 "/>
</feComponentTransfer>
<feComposite operator="in" in2="shape" in="coloredNoise1" result="noise1Clipped" />
<feComponentTransfer in="noise1Clipped" result="color1">
<feFuncA type="table" tableValues="0 0.15" />
</feComponentTransfer>
<feMerge result="effect1_noise_5_17">
<feMergeNode in="shape" />
<feMergeNode in="color1" />
</feMerge>
</filter>
<linearGradient id="paint0_linear_5_17" x1="52.5914" y1="26.5" x2="288.691" y2="26.5" gradientUnits="userSpaceOnUse">
<stop stop-color="#5145E5"/>
<stop offset="1" stop-color="#9133EA"/>
</linearGradient>
<linearGradient id="paint1_linear_5_17" x1="0" y1="26" x2="68.3604" y2="26" gradientUnits="userSpaceOnUse">
<stop stop-color="#5145E5"/>
<stop offset="1" stop-color="#9133EA"/>
</linearGradient>
</defs>
</svg>
